<?xml version="1.0" encoding="UTF-8"?>
<!DOCTYPE svg PUBLIC "-//W3C//DTD SVG 1.1//EN" "http://www.w3.org/Graphics/SVG/1.1/DTD/svg11.dtd">
<!-- Creator: CorelDRAW 2018 (64-Bit) -->
<svg xmlns="http://www.w3.org/2000/svg" xml:space="preserve" width="138.808mm" height="118.24mm" version="1.1" style="shape-rendering:geometricPrecision; text-rendering:geometricPrecision; image-rendering:optimizeQuality; fill-rule:evenodd; clip-rule:evenodd"
viewBox="0 0 17114.63 14578.68"
 xmlns:xlink="http://www.w3.org/1999/xlink">
 <defs>
  <style type="text/css">
   <![CDATA[
    .str0 {stroke:#C5C6C6;stroke-width:24.66;stroke-miterlimit:22.9256}
    .str1 {stroke:#721F2D;stroke-width:24.66;stroke-miterlimit:22.9256}
    .fil3 {fill:none;fill-rule:nonzero}
    .fil0 {fill:#C5C6C6}
    .fil2 {fill:#727271;fill-rule:nonzero}
    .fil1 {fill:#721F2D;fill-rule:nonzero}
   ]]>
  </style>
 </defs>
 <g id="Livello_x0020_1">
  <metadata id="CorelCorpID_0Corel-Layer"/>
  <g id="_3264357826752">
   <path class="fil0 str0" d="M10363.77 6337.58c169.78,-1416.46 334.28,-1183.06 940.33,-1174.72 -97.96,397.52 -192.13,737.49 -278.1,1138.22 -141.92,661.53 -19.05,567.96 -619.88,631.99l-42.35 -595.49zm-313.24 601.69l-900.27 84.19c48.55,-385.76 146.92,-1054.98 241.27,-1416.43 156.95,-600.98 293.82,-507.89 907.8,-458.96l-248.8 1791.2zm-1346.31 -1989.95c-226.1,446.39 -357.18,415.41 -580.29,-3.13 122.48,-347.85 394.08,-263.76 580.29,3.13zm5879.36 78.16c279.47,-234.72 265.77,-206.13 547.61,-489.86l20.65 434.06 -568.27 55.8zm-3643.1 -799.61c123.45,-324.95 159.69,-314.86 431.66,-434.23 -46.85,321.14 -17.95,296.6 -431.66,434.23zm977.23 21.29c169.45,-365.02 86.25,-400.56 468.7,-440.53 -11.89,407.28 -53.79,312.25 -468.7,440.53zm-2044.69 -29.91c79.22,-303.6 130.15,-515.73 459.23,-338.78 -136.77,302.46 -142.94,272.71 -459.23,338.78zm5360.16 -212.31c-277.14,-300.7 -1199.22,-1716.55 -1302.9,-2107.94 -300.28,-1133.29 484.2,-1943.67 1604.04,-1613.57 2105.88,620.73 1329.95,2909.89 -301.14,3721.51zm-6353.13 2965.2c-92.31,677.67 -90.98,214.55 256.05,329.92l807.1 -93.94 331.84 -23.3 519.87 14.65 313.61 6.86c175.11,-192.27 53.25,17.31 86.04,-373.06l321.78 -1594.88 2402.79 25.25 -859.81 987.66c1067.42,-270.81 734.3,-1158.54 2083.68,-975.29l320.1 -17.35 746.97 -194.65 -514.56 -121.98c-1072.23,-398.72 484.78,-1295.65 967.14,-1914.07 1929.16,-2473.22 -3116.76,-4492.75 -3025.51,-1574.38 35.44,1132.84 998.98,1792.72 1383.14,2771.39 -829.63,1096.79 -1979.07,915.9 -3365.62,715.59 230.2,-993.11 1125.67,-91.01 913.52,-1317.69 -779.68,-118.54 -983.74,617.98 -1155.78,1344.16l-692.41 -147.4c267.91,-665.19 1012.63,-277.38 832.94,-1146.47 -782.17,-299.87 -884.02,643.97 -1123.74,1234.38l-773.73 -4.97c121.34,-847.97 1057.72,-185.39 838.05,-1251.8 -885.55,-233.16 -811.51,736.79 -1191.58,1233.47 -645.99,2.96 -439.31,-771.74 -1334.08,-208.46 -338.49,1295.41 984.83,470.61 1295.71,487.58l-383.52 1808.78z"/>
   <path class="fil0 str0" d="M11108.53 7206.34c723.74,-432.55 2652.72,-81.67 3539.36,42.35 -979.08,1179.93 -2295.5,1198.6 -3809.08,1225.93l269.71 -1268.29zm-3611.24 -96.57c-223.99,389.21 -347.65,370.74 -575.9,0 248.56,-277.21 348.02,-196.19 575.9,0zm3697.28 -276.49c-32.78,390.37 89.07,180.79 -86.04,373.06l-313.61 -6.86 -252.81 1254.55 -419.43 -25.79 152.37 -1243.4 -331.84 23.3 -128.11 1273.97 -873.59 102.63 194.59 -1282.66c-347.03,-115.37 -348.36,347.75 -256.05,-329.92 -1507.14,459.2 -872.58,-517.97 -2061.61,-210 -640.59,1439.71 1102.83,546.9 1903.67,502.38 13.93,34.51 19.55,80.24 24.13,109.06l-98.88 1208.33 -1565.74 358.03c353.58,298.03 934.2,-90.16 1550.58,-33.25l-107.29 2606.08c20.75,-45.08 271.25,-238.75 290.57,-289.24 63.34,-347.09 86.81,-1922.88 120.76,-2365.46l896.14 -89.13c-46.06,1282.97 103.78,3966.46 -337.22,5087.25l-793.17 -499.71c117.88,554.8 370.3,767.51 942.45,657.3 906.88,-472.15 -69.85,-4777.49 632.76,-5293.97 448.32,211.57 215.78,-165.18 240.86,538.05 15.6,450.68 12.64,2482.77 269.4,2054.85l81.64 -2546.76c1132.14,-244.54 3460.72,-57.38 4000.51,-1436.13l-164.75 -155.77c540.23,-299.64 144.85,-129.28 270.64,70.91 515.28,-605.88 409.83,-1218.03 487.62,-1986.27l-320.1 17.35c108.38,681.32 5.99,1105.31 -291.36,1690.14l-3657.07 -132.88z"/>
   <path class="fil0 str0" d="M5856.48 13760.3c278.68,769.46 1995.57,337.53 2408.39,-262.25 410.47,-596.3 665.13,-2138.3 590.47,-2711.8 -593.58,708.95 -365.49,1859.1 -784.36,2532.65 -644.82,931.75 -1397.55,447.34 -2214.51,441.4z"/>
   <path class="fil0 str0" d="M15313.19 1008.6c1207.02,-57.31 904.5,1258.78 415.14,1432.1 -772.98,273.78 -925.41,-753.62 -415.14,-1432.1zm1008.04 317.05c-707.63,-1200.99 -1739.92,-342.61 -1542.67,691.54 214.32,1123.51 1826.87,1095.88 1542.67,-691.54z"/>
   <path class="fil0 str0" d="M10764.08 11269.22c-292.84,-404.55 223.41,1245.32 32.75,3019.17 -201.23,108.96 -129.3,30.47 -209.78,55.98l-208.63 85.19c1194.55,941.19 453.17,-3262.97 385.66,-3160.33z"/>
   <path class="fil0 str0" d="M14869.6 7329.81l105.89 -84.87c-125.79,-200.19 269.59,-370.55 -270.64,-70.91l164.75 155.77z"/>
  </g>
  <polygon class="fil1" points="486.2,9134.81 486.2,7560.02 794.85,7560.02 1442.95,8615.38 1442.95,7560.02 1737.68,7560.02 1737.68,9134.81 1419.13,9134.81 780.92,8099.61 780.92,9134.81 "/>
  <path id="1" class="fil1" d="M2008.58 8356.95c0,-160.57 24.19,-295.46 72.2,-404.7 35.56,-80.28 84.68,-152.49 146.64,-216.28 61.94,-63.78 129.76,-111.08 203.44,-142.24 98.24,-41.42 211.52,-62.31 339.82,-62.31 232.4,0 417.89,72.22 557.55,216.28 139.3,144.43 208.94,344.95 208.94,601.91 0,254.77 -69.28,454.18 -207.47,597.88 -138.2,144.06 -323.32,215.91 -554.63,215.91 -234.24,0 -420.81,-71.48 -559.02,-214.81 -138.19,-142.96 -207.47,-340.18 -207.47,-591.64zm327.71 -10.64c0,178.52 41.42,313.79 123.9,406.17 82.47,92 187.31,138.19 314.15,138.19 127.19,0 231.31,-45.82 313.05,-137.09 81.38,-91.65 122.06,-228.74 122.06,-411.65 0,-180.73 -39.59,-315.63 -119.13,-404.33 -79.18,-89.08 -184.39,-133.43 -315.99,-133.43 -131.24,0 -237.17,45.09 -317.45,134.9 -80.28,90.17 -120.6,225.81 -120.6,407.25z"/>
  <polygon id="2" class="fil1" points="4139.45,9134.81 4139.45,7826.15 3673.16,7826.15 3673.16,7560.02 4922.45,7560.02 4922.45,7826.15 4458.37,7826.15 4458.37,9134.81 "/>
  <path id="3" class="fil1" d="M6384.34 9134.81l-343.48 0 -136 -358.51 -631.6 0 -130.87 358.51 -337.24 0 611.44 -1574.79 336.87 0 630.88 1574.79zm-582.85 -624.64l-218.84 -582.85 -212.61 582.85 431.45 0z"/>
  <path class="fil2" d="M997.99 10411.38c29.22,4.17 35.48,181.64 33.4,189.99 18.79,10.44 20.87,16.71 29.22,37.58 -35.48,45.93 39.68,93.95 33.41,160.77 27.14,16.69 31.32,54.28 56.37,73.07 27.14,110.66 73.07,206.7 146.14,273.51 81.43,-6.26 100.22,18.79 169.11,33.4 133.62,-25.05 144.06,-219.22 227.57,-315.26 66.81,-242.19 146.16,-453.06 171.21,-684.81 35.48,-10.44 22.96,-45.94 16.69,-81.43 56.37,-62.64 16.71,-200.43 48.02,-296.47 -27.14,-6.26 -14.61,-37.58 -25.05,-41.76 -20.87,6.26 -39.66,-4.18 -35.5,-31.32 -18.79,-18.79 -45.93,-14.61 -68.9,16.71 -29.22,-10.44 -41.75,-35.5 -81.43,-33.41 6.26,248.46 -81.43,444.71 -112.74,718.22 -66.8,104.38 -60.54,256.8 -150.32,340.31 6.26,54.29 -29.22,112.74 -62.64,127.35 -54.28,-127.35 -139.88,-281.86 -146.14,-419.65 -89.77,-177.46 -89.77,-388.34 -150.32,-609.64 -127.35,-25.05 -93.95,48.02 -167.02,37.58 2.08,141.98 -79.34,217.14 -54.29,329.88 -8.35,-16.71 -25.05,-16.71 -33.4,-16.71 -18.79,242.19 -137.8,448.89 -129.45,701.51 -114.83,-60.55 -102.3,-248.46 -179.56,-346.58 -43.84,-221.32 -175.38,-419.65 -227.57,-659.75 -98.13,-75.16 -98.13,-219.22 -194.17,-306.91 -33.4,-4.18 -73.08,20.87 -104.4,16.69 -6.26,45.94 -2.08,48.02 0,96.05 16.71,8.35 22.97,-4.18 31.32,25.05 -33.4,12.53 29.23,54.28 0,79.33 37.58,6.26 37.58,4.18 45.94,-2.08 -60.55,50.11 75.16,144.06 43.84,212.96 39.66,-4.18 27.14,48.02 25.05,62.64 31.32,-16.71 18.79,14.61 39.66,25.05 -33.4,66.8 39.66,100.22 31.32,160.76 29.23,-2.08 10.44,-20.87 41.76,-8.35 -12.53,33.4 8.35,29.23 -20.89,70.98 12.53,2.1 35.5,-10.43 43.84,20.89 -29.22,4.17 0,27.14 -31.32,12.53 33.41,66.8 43.84,187.91 98.13,233.83 -8.35,56.37 12.53,83.51 16.71,129.45 33.4,6.26 27.14,-4.18 22.96,48.01 18.79,20.89 27.15,50.11 56.37,56.37 -39.66,83.52 75.16,110.66 58.47,169.11 33.4,-14.61 79.33,12.53 56.37,50.11 14.61,12.53 31.32,20.89 48.01,31.32 0,18.79 -14.61,22.97 -8.35,48.02 27.14,-6.26 25.05,12.53 33.4,25.05 14.62,2.08 31.32,8.35 39.68,2.08 25.05,37.58 62.64,50.11 114.83,37.58 68.9,-106.48 85.61,-231.75 137.8,-346.58 -10.44,-108.56 39.66,-354.94 66.81,-453.06z"/>
  <path id="1" class="fil2" d="M3294.59 9878.98c0,-89.77 -62.64,-121.09 -135.7,-137.8 -141.98,-177.46 -371.63,-106.48 -603.38,-100.22 0,18.79 0,37.58 -16.71,39.66 -33.4,-16.69 -52.19,16.71 -91.87,0 -39.66,48.02 -102.3,35.5 -167.02,52.2 -37.58,70.98 -121.1,60.54 -183.74,91.86 0,45.94 -66.8,20.89 -114.83,45.94 16.71,77.25 14.61,123.17 60.55,175.38 52.19,-2.1 75.16,10.43 108.56,-8.36 -14.61,139.88 -14.61,275.59 -8.35,413.39 6.26,158.67 -48.02,315.26 -8.36,473.94 4.18,14.61 20.89,29.22 22.97,45.93 22.97,116.92 -12.53,277.68 137.8,327.79 12.53,-12.53 58.46,-35.48 98.13,-43.84 -6.26,-104.38 -2.1,-269.33 -58.47,-373.71 119.01,-100.22 248.46,-54.29 432.18,-77.26 27.15,33.41 98.13,31.32 150.32,64.73 12.53,-2.1 37.58,-10.44 39.68,-22.97 102.3,14.61 158.67,98.13 240.1,116.92 66.8,58.46 133.62,148.23 229.65,152.41 4.18,-66.81 68.9,-25.05 75.16,-91.87 -27.14,-4.17 -22.96,-22.96 -6.26,-37.58 -68.9,-43.84 -106.48,-91.86 -169.11,-129.44 -108.56,-64.73 -200.43,-173.29 -344.48,-192.08 -77.26,-8.35 -114.84,-22.97 -167.03,-43.84 212.96,-129.45 482.29,-359.1 511.51,-626.35 2.1,-12.53 -16.69,-14.61 -14.61,-22.96 2.08,-31.32 33.4,-62.64 14.61,-91.87 -12.53,-22.97 -22.96,20.87 -31.32,0zm-517.78 -39.66c116.92,-25.05 329.87,-35.5 382.07,85.59 -164.93,453.06 -467.68,507.34 -797.55,688.99 2.08,-66.81 -50.11,-8.35 -62.64,-27.14 10.43,-127.37 -14.62,-275.59 2.08,-375.81 22.97,-2.1 43.84,16.69 60.55,0 -31.32,-127.35 6.26,-133.62 -68.9,-215.04 54.28,-58.47 54.28,0 108.56,-62.64 12.53,0 10.44,18.79 39.66,8.35 119.01,-41.76 206.7,-106.48 336.15,-102.3z"/>
  <path id="2" class="fil2" d="M3655.79 10939.6c16.69,48.02 22.96,56.37 12.53,96.04 -6.26,4.18 -6.26,12.53 -10.44,16.71 0,14.61 -14.61,54.29 -10.44,68.9 6.26,25.05 35.5,56.37 62.64,62.64 45.94,6.26 73.08,8.35 119.01,14.61 2.1,0 6.26,-2.08 10.44,-2.08 12.53,-12.53 27.14,-25.05 29.23,-64.72 2.08,-29.23 -20.89,-167.03 -20.89,-167.03 -31.32,-16.71 -10.43,-37.58 -12.53,-58.46 -6.26,-33.41 25.05,-25.05 -2.08,-96.05 2.08,0 50.11,-77.25 6.26,-81.43 18.79,-215.04 -20.87,-206.7 2.08,-402.95 -22.96,-18.79 -6.26,-62.64 -27.14,-81.43 54.29,-68.9 -10.44,-146.14 18.79,-229.65 -8.35,-2.1 -16.71,-8.36 -22.97,-14.62 41.76,-39.66 -33.4,-68.9 6.26,-110.65 0,0 20.89,-10.44 -22.96,-25.05 45.93,-14.62 14.61,-181.64 -18.79,-144.06 -14.62,-54.29 -25.05,-16.71 -66.81,-52.2 -31.32,0 -41.76,31.32 -50.11,93.95 -4.18,29.23 4.18,75.16 -4.18,110.66 -6.26,41.76 2.1,79.34 16.71,93.95 -14.61,127.35 -16.71,223.39 -14.61,306.91 27.14,96.04 0,144.06 4.17,185.81 10.44,150.32 31.32,225.49 -4.17,480.21z"/>
  <path id="3" class="fil2" d="M5179.91 9680.63c-20.87,45.94 -56.37,33.41 -79.33,0 -37.58,29.23 -146.16,-31.32 -177.47,14.62 -31.32,-54.29 -77.25,-27.15 -125.27,-14.62 -27.14,-29.22 -22.96,-14.61 -68.9,-16.69 -16.69,-52.2 -79.33,-27.15 -131.53,-41.76 -102.3,154.5 -221.31,-62.64 -375.81,70.98 -70.98,-35.48 -56.37,27.15 -167.02,6.26 -2.1,50.11 -62.64,43.84 -31.32,148.24 27.14,-2.08 58.46,35.5 77.25,41.76 187.91,-2.1 342.41,-73.08 488.55,-22.97 -22.97,175.38 -4.18,329.87 -31.32,496.9 27.14,54.29 4.18,98.13 0,162.85 -6.26,93.95 2.08,202.52 8.35,302.73 10.44,175.38 29.23,396.7 225.49,350.76 16.71,-22.96 10.44,-25.05 31.32,-45.93 -33.4,-175.38 -14.61,-325.7 -37.58,-513.61 -4.17,-18.79 35.5,-18.79 29.23,-43.84 -33.4,-235.93 -14.61,-375.81 -33.4,-605.46 39.66,-25.05 -29.23,-114.84 10.43,-135.71 210.88,2.08 379.99,14.61 567.9,56.37 20.87,-29.23 81.43,-18.79 83.51,-68.9 -48.02,-60.55 -135.71,-162.85 -227.57,-104.4 8.35,-43.84 -29.23,-25.05 -35.5,-37.58z"/>
  <path id="4" class="fil2" d="M6455.57 9680.63c-20.87,45.94 -56.37,33.41 -79.33,0 -37.58,29.23 -146.16,-31.32 -177.47,14.62 -31.32,-54.29 -77.25,-27.15 -125.27,-14.62 -27.14,-29.22 -22.96,-14.61 -68.9,-16.69 -16.69,-52.2 -79.33,-27.15 -131.53,-41.76 -102.3,154.5 -221.31,-62.64 -375.81,70.98 -70.98,-35.48 -56.37,27.15 -167.02,6.26 -2.1,50.11 -62.64,43.84 -31.32,148.24 27.14,-2.08 58.46,35.5 77.25,41.76 187.91,-2.1 342.41,-73.08 488.55,-22.97 -22.97,175.38 -4.18,329.87 -31.32,496.9 27.14,54.29 4.18,98.13 0,162.85 -6.26,93.95 2.08,202.52 8.35,302.73 10.44,175.38 29.23,396.7 225.49,350.76 16.71,-22.96 10.44,-25.05 31.32,-45.93 -33.4,-175.38 -14.61,-325.7 -37.58,-513.61 -4.17,-18.79 35.5,-18.79 29.23,-43.84 -33.4,-235.93 -14.61,-375.81 -33.4,-605.46 39.66,-25.05 -29.23,-114.84 10.43,-135.71 210.88,2.08 379.99,14.61 567.9,56.37 20.87,-29.23 81.43,-18.79 83.51,-68.9 -48.02,-60.55 -135.71,-162.85 -227.57,-104.4 8.35,-43.84 -29.23,-25.05 -35.5,-37.58z"/>
  <path id="5" class="fil2" d="M9221.21 9592.94c58.46,288.12 -22.97,540.75 -43.84,864.36 -48.02,66.81 0,229.67 -43.84,298.56 -96.04,-77.26 -171.2,-194.17 -256.8,-279.77 8.35,-135.71 -206.7,-223.4 -183.73,-321.52 -121.1,-141.98 -229.67,-300.65 -313.18,-457.24 -41.76,-18.79 -93.95,-50.11 -150.32,-56.37 12.53,56.37 -39.68,68.9 -43.84,81.43 85.59,141.98 12.53,246.36 35.48,371.63 27.15,22.97 -6.26,66.81 -8.35,112.74 -2.08,48.02 27.14,104.4 25.05,150.32 -2.08,18.79 -25.05,39.66 -25.05,56.37 0,33.4 25.05,58.46 25.05,87.69 0,14.61 -22.97,35.5 -25.05,48.02 -2.08,12.53 6.26,54.28 8.35,73.07 8.36,85.61 -10.43,144.06 -8.35,229.67 0,102.3 -10.44,194.17 0,288.12 27.14,50.11 73.08,48.02 98.13,87.69 35.48,-16.71 58.46,12.53 81.43,0 18.79,-68.9 -2.1,-144.06 33.4,-183.73 -27.14,-60.55 -16.71,-160.77 0,-206.7 -37.58,-62.64 8.35,-110.66 8.35,-160.77 0,-83.51 -33.4,-171.2 -25.05,-238.01 4.18,-27.14 18.79,-50.11 25.05,-73.08 -12.53,-62.64 -39.66,-150.32 -4.17,-215.04 10.43,20.87 54.28,-2.08 45.93,85.61 56.37,18.79 56.37,43.84 77.25,98.12 93.95,125.27 194.17,227.58 273.51,359.12 93.95,152.41 277.68,271.41 275.59,338.23 79.33,8.35 85.59,187.91 231.75,121.09 -2.1,-25.05 12.53,-50.11 41.75,-43.84 -37.58,-306.91 4.18,-601.3 -8.35,-893.6 58.46,-129.44 52.19,-300.64 77.25,-461.4 -2.08,-14.61 -16.69,-20.87 -25.05,-31.32 12.53,-6.26 12.53,-25.05 16.71,-39.66 -39.66,-2.1 -4.18,-43.84 -27.14,-66.81 -75.16,-6.26 -110.66,-60.55 -187.91,-22.97z"/>
  <path id="6" class="fil2" d="M11162.9 10411.38c29.22,4.17 35.48,181.64 33.4,189.99 18.79,10.44 20.87,16.71 29.22,37.58 -35.48,45.93 39.68,93.95 33.41,160.77 27.14,16.69 31.32,54.28 56.37,73.07 27.14,110.66 73.07,206.7 146.14,273.51 81.43,-6.26 100.22,18.79 169.11,33.4 133.62,-25.05 144.06,-219.22 227.57,-315.26 66.81,-242.19 146.16,-453.06 171.21,-684.81 35.48,-10.44 22.96,-45.94 16.69,-81.43 56.37,-62.64 16.71,-200.43 48.02,-296.47 -27.14,-6.26 -14.61,-37.58 -25.05,-41.76 -20.87,6.26 -39.66,-4.18 -35.5,-31.32 -18.79,-18.79 -45.93,-14.61 -68.9,16.71 -29.22,-10.44 -41.75,-35.5 -81.43,-33.41 6.26,248.46 -81.43,444.71 -112.74,718.22 -66.8,104.38 -60.54,256.8 -150.32,340.31 6.26,54.29 -29.22,112.74 -62.64,127.35 -54.28,-127.35 -139.88,-281.86 -146.14,-419.65 -89.77,-177.46 -89.77,-388.34 -150.32,-609.64 -127.35,-25.05 -93.95,48.02 -167.02,37.58 2.08,141.98 -79.34,217.14 -54.29,329.88 -8.35,-16.71 -25.05,-16.71 -33.4,-16.71 -18.79,242.19 -137.8,448.89 -129.45,701.51 -114.83,-60.55 -102.3,-248.46 -179.56,-346.58 -43.84,-221.32 -175.38,-419.65 -227.57,-659.75 -98.13,-75.16 -98.13,-219.22 -194.17,-306.91 -33.4,-4.18 -73.08,20.87 -104.4,16.69 -6.26,45.94 -2.08,48.02 0,96.05 16.71,8.35 22.97,-4.18 31.32,25.05 -33.4,12.53 29.23,54.28 0,79.33 37.58,6.26 37.58,4.18 45.94,-2.08 -60.55,50.11 75.16,144.06 43.84,212.96 39.66,-4.18 27.14,48.02 25.05,62.64 31.32,-16.71 18.79,14.61 39.66,25.05 -33.4,66.8 39.66,100.22 31.32,160.76 29.23,-2.08 10.44,-20.87 41.76,-8.35 -12.53,33.4 8.35,29.23 -20.89,70.98 12.53,2.1 35.5,-10.43 43.84,20.89 -29.22,4.17 0,27.14 -31.32,12.53 33.41,66.8 43.84,187.91 98.13,233.83 -8.35,56.37 12.53,83.51 16.71,129.45 33.4,6.26 27.14,-4.18 22.96,48.01 18.79,20.89 27.15,50.11 56.37,56.37 -39.66,83.52 75.16,110.66 58.47,169.11 33.4,-14.61 79.33,12.53 56.37,50.11 14.61,12.53 31.32,20.89 48.01,31.32 0,18.79 -14.61,22.97 -8.35,48.02 27.14,-6.26 25.05,12.53 33.4,25.05 14.62,2.08 31.32,8.35 39.68,2.08 25.05,37.58 62.64,50.11 114.83,37.58 68.9,-106.48 85.61,-231.75 137.8,-346.58 -10.44,-108.56 39.66,-354.94 66.81,-453.06z"/>
  <path id="7" class="fil2" d="M13574.34 10185.89c0,0 37.58,4.17 27.14,-35.5 -10.44,-54.29 -48.02,-20.87 -27.14,-73.07 -16.71,-4.18 -20.89,0 -27.15,4.17 6.26,-33.4 -8.35,-35.48 -6.26,-66.8 -29.22,-6.26 -41.75,-48.02 -60.54,-64.73 10.43,-77.25 -119.01,-148.23 -173.29,-238.01 -37.58,25.05 -52.19,-48.01 -87.69,-22.96 -8.35,-16.71 -85.59,-27.15 -93.95,-43.84 -68.9,4.17 -75.16,29.22 -137.8,16.69 -25.05,-4.17 -50.11,33.41 -68.9,35.5 -2.08,-37.58 -56.37,-56.37 -66.8,-87.69 -29.23,16.71 -20.89,-4.18 -31.32,50.11 -14.62,-27.14 -66.81,-45.93 -93.95,-48.02 -10.44,12.53 12.53,110.66 -41.76,27.15 -81.43,39.66 -79.34,54.28 -79.34,54.28 -33.4,8.36 -14.61,31.32 -8.35,41.76 -56.37,-20.87 -106.48,52.19 -129.45,87.69 8.36,4.18 16.71,2.08 20.89,8.35 -8.36,12.53 -35.5,45.94 -56.37,48.02 10.43,93.95 -91.87,58.46 -43.84,158.67 -22.97,10.44 -41.76,22.97 -64.73,31.32 -6.26,70.98 -70.98,146.14 -50.11,223.4 -48.01,27.14 -25.05,68.9 -31.32,108.56 -4.17,31.32 -29.22,58.46 -33.4,93.95 0,18.79 18.79,41.76 16.71,68.9 -2.1,58.46 -31.32,93.95 8.35,125.27 -2.08,14.61 -20.87,14.61 -25.05,31.32 58.46,192.08 102.3,281.86 244.28,392.52 37.58,-16.71 75.16,27.14 83.51,27.14 8.36,18.79 45.94,37.58 64.73,22.97 0,6.26 0,14.61 0,22.96 29.22,8.36 98.12,-20.87 89.77,22.97 54.29,-6.26 100.22,0 131.53,-25.05 4.18,14.61 31.32,6.26 25.05,31.32 91.87,-10.44 116.92,-37.58 217.14,-37.58 8.35,-41.76 60.54,-41.76 112.74,-39.66 8.35,-10.44 8.35,-29.23 25.04,-31.32 106.48,-2.1 160.77,-110.66 242.19,-169.11 27.14,-20.89 93.95,-89.79 112.74,-125.27 22.97,-43.84 18.79,-98.13 48.02,-131.53 20.87,-22.97 50.11,-60.55 33.4,-100.22 8.35,-25.05 22.97,-127.37 22.97,-116.92 0,-2.08 -16.71,-8.35 -16.71,-14.61 18.79,-89.79 -2.08,-139.89 -29.23,-244.28 -25.05,18.79 -45.93,2.08 -41.75,-18.79zm-929.08 -256.8c25.05,-29.23 81.43,-48.02 98.12,-85.61 58.47,27.15 10.44,33.41 14.62,104.4 14.61,37.58 96.04,-60.55 89.77,16.71 119.01,-33.41 116.92,-164.95 361.19,-66.81 141.98,127.35 238.01,409.21 225.49,666.02 0,22.97 -18.79,29.23 -31.32,39.66 -10.43,141.98 -148.23,200.43 -219.22,311.09 -60.54,8.35 -89.77,48.02 -129.44,77.25 -141.98,48.02 -398.78,54.29 -505.26,-48.01 -31.32,-70.99 -73.07,-131.53 -104.38,-200.43 -37.58,-244.28 14.61,-540.76 144.06,-737.01 4.17,-6.26 27.14,-8.35 33.4,-14.61 12.53,-16.71 14.61,-52.19 22.97,-62.64z"/>
  <path id="8" class="fil2" d="M15083.83 9878.98c0,-89.77 -62.64,-121.09 -135.7,-137.8 -141.98,-177.46 -371.63,-106.48 -603.38,-100.22 0,18.79 0,37.58 -16.71,39.66 -33.4,-16.69 -52.19,16.71 -91.87,0 -39.66,48.02 -102.3,35.5 -167.02,52.2 -37.58,70.98 -121.1,60.54 -183.74,91.86 0,45.94 -66.8,20.89 -114.83,45.94 16.71,77.25 14.61,123.17 60.55,175.38 52.19,-2.1 75.16,10.43 108.56,-8.36 -14.61,139.88 -14.61,275.59 -8.35,413.39 6.26,158.67 -48.02,315.26 -8.36,473.94 4.18,14.61 20.89,29.22 22.97,45.93 22.97,116.92 -12.53,277.68 137.8,327.79 12.53,-12.53 58.46,-35.48 98.13,-43.84 -6.26,-104.38 -2.1,-269.33 -58.47,-373.71 119.01,-100.22 248.46,-54.29 432.18,-77.26 27.15,33.41 98.13,31.32 150.32,64.73 12.53,-2.1 37.58,-10.44 39.68,-22.97 102.3,14.61 158.67,98.13 240.1,116.92 66.8,58.46 133.62,148.23 229.65,152.41 4.18,-66.81 68.9,-25.05 75.16,-91.87 -27.14,-4.17 -22.96,-22.96 -6.26,-37.58 -68.9,-43.84 -106.48,-91.86 -169.11,-129.44 -108.56,-64.73 -200.43,-173.29 -344.48,-192.08 -77.26,-8.35 -114.84,-22.97 -167.03,-43.84 212.96,-129.45 482.29,-359.1 511.51,-626.35 2.1,-12.53 -16.69,-14.61 -14.61,-22.96 2.08,-31.32 33.4,-62.64 14.61,-91.87 -12.53,-22.97 -22.96,20.87 -31.32,0zm-517.78 -39.66c116.92,-25.05 329.87,-35.5 382.07,85.59 -164.93,453.06 -467.68,507.34 -797.55,688.99 2.08,-66.81 -50.11,-8.35 -62.64,-27.14 10.43,-127.37 -14.62,-275.59 2.08,-375.81 22.97,-2.1 43.84,16.69 60.55,0 -31.32,-127.35 6.26,-133.62 -68.9,-215.04 54.28,-58.47 54.28,0 108.56,-62.64 12.53,0 10.44,18.79 39.66,8.35 119.01,-41.76 206.7,-106.48 336.15,-102.3z"/>
  <path id="9" class="fil2" d="M16286.43 9810.08c-25.05,-35.5 -85.61,-100.22 -131.53,-104.4 -41.76,-2.08 -8.35,16.71 -39.66,-8.35 -22.97,-18.79 -62.64,-8.35 -100.22,-8.35 -27.15,0 -45.94,-25.05 -45.94,-25.05 -56.37,-10.44 -81.43,20.87 -102.3,16.69 -39.66,-6.26 -48.02,-10.43 -83.51,-18.79 -10.44,8.36 -18.79,27.15 -33.41,29.23 0,-12.53 -18.79,-20.87 -22.96,-27.14 -29.23,-4.18 -20.89,33.4 -54.29,25.05 -127.35,-37.58 -223.4,25.05 -317.36,60.54 -16.69,68.9 -4.17,162.85 31.32,200.43 52.2,14.62 87.69,-12.53 154.5,-35.48 48.02,70.98 27.14,250.53 39.66,392.5 4.18,62.64 29.23,119.01 37.58,173.29 20.89,137.8 33.41,377.89 31.32,457.24 -119.01,29.22 -68.9,139.88 -60.54,212.96 10.43,-27.15 22.96,8.35 16.69,27.14 45.94,-6.26 70.99,50.11 91.87,16.71 2.08,45.93 119.01,100.22 116.92,0 70.98,-25.05 167.02,-89.79 231.75,-123.19 50.11,-4.18 93.95,-16.71 108.56,-60.55 29.23,29.23 48.02,-54.28 85.61,-16.69 62.64,-64.73 156.58,-135.71 231.74,-156.59 60.55,-114.84 219.22,-206.7 187.91,-365.38 43.84,-85.59 -20.87,-141.96 0,-208.78 -10.43,-20.87 -16.69,-6.26 -25.05,-16.71 20.89,-33.4 -25.05,-48.01 -22.96,-87.69 -12.53,-4.17 -31.32,-4.17 -37.58,-16.69 -8.36,-64.72 -33.41,-164.93 -89.79,-175.38 -41.75,-79.34 -112.74,-110.66 -198.34,-156.59zm-357.02 1083.59c-64.72,0 -56.37,22.96 -110.66,6.26 -18.79,-116.92 10.44,-177.47 -41.75,-379.99 -8.36,-33.4 -56.37,-440.53 -68.9,-638.88 62.64,-31.32 104.38,-16.69 150.32,-10.43 8.35,-2.1 14.61,-6.26 16.69,-16.71 144.06,33.4 306.91,79.34 434.28,173.29 58.46,85.59 100.2,146.14 152.41,240.1 54.28,252.62 -93.95,350.76 -269.33,478.11 -27.14,18.79 -45.93,52.19 -70.98,68.9 -54.29,37.58 -162.85,16.71 -192.08,79.34z"/>
  <polygon id="10" class="fil1" points="6756.01,11146.29 6756.01,9571.5 7921.71,9571.5 7921.71,9837.64 7074.93,9837.64 7074.93,10187.35 7862.32,10187.35 7862.32,10453.47 7074.93,10453.47 7074.93,10880.17 7952.5,10880.17 7952.5,11146.29 "/>
  <path id="11" class="fil3" d="M997.99 10411.38c29.22,4.17 35.48,181.64 33.4,189.99 18.79,10.44 20.87,16.71 29.22,37.58 -35.48,45.93 39.68,93.95 33.41,160.77 27.14,16.69 31.32,54.28 56.37,73.07 27.14,110.66 73.07,206.7 146.14,273.51 81.43,-6.26 100.22,18.79 169.11,33.4 133.62,-25.05 144.06,-219.22 227.57,-315.26 66.81,-242.19 146.16,-453.06 171.21,-684.81 35.48,-10.44 22.96,-45.94 16.69,-81.43 56.37,-62.64 16.71,-200.43 48.02,-296.47 -27.14,-6.26 -14.61,-37.58 -25.05,-41.76 -20.87,6.26 -39.66,-4.18 -35.5,-31.32 -18.79,-18.79 -45.93,-14.61 -68.9,16.71 -29.22,-10.44 -41.75,-35.5 -81.43,-33.41 6.26,248.46 -81.43,444.71 -112.74,718.22 -66.8,104.38 -60.54,256.8 -150.32,340.31 6.26,54.29 -29.22,112.74 -62.64,127.35 -54.28,-127.35 -139.88,-281.86 -146.14,-419.65 -89.77,-177.46 -89.77,-388.34 -150.32,-609.64 -127.35,-25.05 -93.95,48.02 -167.02,37.58 2.08,141.98 -79.34,217.14 -54.29,329.88 -8.35,-16.71 -25.05,-16.71 -33.4,-16.71 -18.79,242.19 -137.8,448.89 -129.45,701.51 -114.83,-60.55 -102.3,-248.46 -179.56,-346.58 -43.84,-221.32 -175.38,-419.65 -227.57,-659.75 -98.13,-75.16 -98.13,-219.22 -194.17,-306.91 -33.4,-4.18 -73.08,20.87 -104.4,16.69 -6.26,45.94 -2.08,48.02 0,96.05 16.71,8.35 22.97,-4.18 31.32,25.05 -33.4,12.53 29.23,54.28 0,79.33 37.58,6.26 37.58,4.18 45.94,-2.08 -60.55,50.11 75.16,144.06 43.84,212.96 39.66,-4.18 27.14,48.02 25.05,62.64 31.32,-16.71 18.79,14.61 39.66,25.05 -33.4,66.8 39.66,100.22 31.32,160.76 29.23,-2.08 10.44,-20.87 41.76,-8.35 -12.53,33.4 8.35,29.23 -20.89,70.98 12.53,2.1 35.5,-10.43 43.84,20.89 -29.22,4.17 0,27.14 -31.32,12.53 33.41,66.8 43.84,187.91 98.13,233.83 -8.35,56.37 12.53,83.51 16.71,129.45 33.4,6.26 27.14,-4.18 22.96,48.01 18.79,20.89 27.15,50.11 56.37,56.37 -39.66,83.52 75.16,110.66 58.47,169.11 33.4,-14.61 79.33,12.53 56.37,50.11 14.61,12.53 31.32,20.89 48.01,31.32 0,18.79 -14.61,22.97 -8.35,48.02 27.14,-6.26 25.05,12.53 33.4,25.05 14.62,2.08 31.32,8.35 39.68,2.08 25.05,37.58 62.64,50.11 114.83,37.58 68.9,-106.48 85.61,-231.75 137.8,-346.58 -10.44,-108.56 39.66,-354.94 66.81,-453.06z"/>
  <path id="12" class="fil3" d="M3294.59 9878.98c0,-89.77 -62.64,-121.09 -135.7,-137.8 -141.98,-177.46 -371.63,-106.48 -603.38,-100.22 0,18.79 0,37.58 -16.71,39.66 -33.4,-16.69 -52.19,16.71 -91.87,0 -39.66,48.02 -102.3,35.5 -167.02,52.2 -37.58,70.98 -121.1,60.54 -183.74,91.86 0,45.94 -66.8,20.89 -114.83,45.94 16.71,77.25 14.61,123.17 60.55,175.38 52.19,-2.1 75.16,10.43 108.56,-8.36 -14.61,139.88 -14.61,275.59 -8.35,413.39 6.26,158.67 -48.02,315.26 -8.36,473.94 4.18,14.61 20.89,29.22 22.97,45.93 22.97,116.92 -12.53,277.68 137.8,327.79 12.53,-12.53 58.46,-35.48 98.13,-43.84 -6.26,-104.38 -2.1,-269.33 -58.47,-373.71 119.01,-100.22 248.46,-54.29 432.18,-77.26 27.15,33.41 98.13,31.32 150.32,64.73 12.53,-2.1 37.58,-10.44 39.68,-22.97 102.3,14.61 158.67,98.13 240.1,116.92 66.8,58.46 133.62,148.23 229.65,152.41 4.18,-66.81 68.9,-25.05 75.16,-91.87 -27.14,-4.17 -22.96,-22.96 -6.26,-37.58 -68.9,-43.84 -106.48,-91.86 -169.11,-129.44 -108.56,-64.73 -200.43,-173.29 -344.48,-192.08 -77.26,-8.35 -114.84,-22.97 -167.03,-43.84 212.96,-129.45 482.29,-359.1 511.51,-626.35 2.1,-12.53 -16.69,-14.61 -14.61,-22.96 2.08,-31.32 33.4,-62.64 14.61,-91.87 -12.53,-22.97 -22.96,20.87 -31.32,0zm-517.78 -39.66c116.92,-25.05 329.87,-35.5 382.07,85.59 -164.93,453.06 -467.68,507.34 -797.55,688.99 2.08,-66.81 -50.11,-8.35 -62.64,-27.14 10.43,-127.37 -14.62,-275.59 2.08,-375.81 22.97,-2.1 43.84,16.69 60.55,0 -31.32,-127.35 6.26,-133.62 -68.9,-215.04 54.28,-58.47 54.28,0 108.56,-62.64 12.53,0 10.44,18.79 39.66,8.35 119.01,-41.76 206.7,-106.48 336.15,-102.3z"/>
  <path id="13" class="fil3" d="M3655.79 10939.6c16.69,48.02 22.96,56.37 12.53,96.04 -6.26,4.18 -6.26,12.53 -10.44,16.71 0,14.61 -14.61,54.29 -10.44,68.9 6.26,25.05 35.5,56.37 62.64,62.64 45.94,6.26 73.08,8.35 119.01,14.61 2.1,0 6.26,-2.08 10.44,-2.08 12.53,-12.53 27.14,-25.05 29.23,-64.72 2.08,-29.23 -20.89,-167.03 -20.89,-167.03 -31.32,-16.71 -10.43,-37.58 -12.53,-58.46 -6.26,-33.41 25.05,-25.05 -2.08,-96.05 2.08,0 50.11,-77.25 6.26,-81.43 18.79,-215.04 -20.87,-206.7 2.08,-402.95 -22.96,-18.79 -6.26,-62.64 -27.14,-81.43 54.29,-68.9 -10.44,-146.14 18.79,-229.65 -8.35,-2.1 -16.71,-8.36 -22.97,-14.62 41.76,-39.66 -33.4,-68.9 6.26,-110.65 0,0 20.89,-10.44 -22.96,-25.05 45.93,-14.62 14.61,-181.64 -18.79,-144.06 -14.62,-54.29 -25.05,-16.71 -66.81,-52.2 -31.32,0 -41.76,31.32 -50.11,93.95 -4.18,29.23 4.18,75.16 -4.18,110.66 -6.26,41.76 2.1,79.34 16.71,93.95 -14.61,127.35 -16.71,223.39 -14.61,306.91 27.14,96.04 0,144.06 4.17,185.81 10.44,150.32 31.32,225.49 -4.17,480.21z"/>
  <path id="14" class="fil3" d="M5179.91 9680.63c-20.87,45.94 -56.37,33.41 -79.33,0 -37.58,29.23 -146.16,-31.32 -177.47,14.62 -31.32,-54.29 -77.25,-27.15 -125.27,-14.62 -27.14,-29.22 -22.96,-14.61 -68.9,-16.69 -16.69,-52.2 -79.33,-27.15 -131.53,-41.76 -102.3,154.5 -221.31,-62.64 -375.81,70.98 -70.98,-35.48 -56.37,27.15 -167.02,6.26 -2.1,50.11 -62.64,43.84 -31.32,148.24 27.14,-2.08 58.46,35.5 77.25,41.76 187.91,-2.1 342.41,-73.08 488.55,-22.97 -22.97,175.38 -4.18,329.87 -31.32,496.9 27.14,54.29 4.18,98.13 0,162.85 -6.26,93.95 2.08,202.52 8.35,302.73 10.44,175.38 29.23,396.7 225.49,350.76 16.71,-22.96 10.44,-25.05 31.32,-45.93 -33.4,-175.38 -14.61,-325.7 -37.58,-513.61 -4.17,-18.79 35.5,-18.79 29.23,-43.84 -33.4,-235.93 -14.61,-375.81 -33.4,-605.46 39.66,-25.05 -29.23,-114.84 10.43,-135.71 210.88,2.08 379.99,14.61 567.9,56.37 20.87,-29.23 81.43,-18.79 83.51,-68.9 -48.02,-60.55 -135.71,-162.85 -227.57,-104.4 8.35,-43.84 -29.23,-25.05 -35.5,-37.58z"/>
  <path id="15" class="fil3" d="M6455.57 9680.63c-20.87,45.94 -56.37,33.41 -79.33,0 -37.58,29.23 -146.16,-31.32 -177.47,14.62 -31.32,-54.29 -77.25,-27.15 -125.27,-14.62 -27.14,-29.22 -22.96,-14.61 -68.9,-16.69 -16.69,-52.2 -79.33,-27.15 -131.53,-41.76 -102.3,154.5 -221.31,-62.64 -375.81,70.98 -70.98,-35.48 -56.37,27.15 -167.02,6.26 -2.1,50.11 -62.64,43.84 -31.32,148.24 27.14,-2.08 58.46,35.5 77.25,41.76 187.91,-2.1 342.41,-73.08 488.55,-22.97 -22.97,175.38 -4.18,329.87 -31.32,496.9 27.14,54.29 4.18,98.13 0,162.85 -6.26,93.95 2.08,202.52 8.35,302.73 10.44,175.38 29.23,396.7 225.49,350.76 16.71,-22.96 10.44,-25.05 31.32,-45.93 -33.4,-175.38 -14.61,-325.7 -37.58,-513.61 -4.17,-18.79 35.5,-18.79 29.23,-43.84 -33.4,-235.93 -14.61,-375.81 -33.4,-605.46 39.66,-25.05 -29.23,-114.84 10.43,-135.71 210.88,2.08 379.99,14.61 567.9,56.37 20.87,-29.23 81.43,-18.79 83.51,-68.9 -48.02,-60.55 -135.71,-162.85 -227.57,-104.4 8.35,-43.84 -29.23,-25.05 -35.5,-37.58z"/>
  <path id="16" class="fil3" d="M9221.21 9592.94c58.46,288.12 -22.97,540.75 -43.84,864.36 -48.02,66.81 0,229.67 -43.84,298.56 -96.04,-77.26 -171.2,-194.17 -256.8,-279.77 8.35,-135.71 -206.7,-223.4 -183.73,-321.52 -121.1,-141.98 -229.67,-300.65 -313.18,-457.24 -41.76,-18.79 -93.95,-50.11 -150.32,-56.37 12.53,56.37 -39.68,68.9 -43.84,81.43 85.59,141.98 12.53,246.36 35.48,371.63 27.15,22.97 -6.26,66.81 -8.35,112.74 -2.08,48.02 27.14,104.4 25.05,150.32 -2.08,18.79 -25.05,39.66 -25.05,56.37 0,33.4 25.05,58.46 25.05,87.69 0,14.61 -22.97,35.5 -25.05,48.02 -2.08,12.53 6.26,54.28 8.35,73.07 8.36,85.61 -10.43,144.06 -8.35,229.67 0,102.3 -10.44,194.17 0,288.12 27.14,50.11 73.08,48.02 98.13,87.69 35.48,-16.71 58.46,12.53 81.43,0 18.79,-68.9 -2.1,-144.06 33.4,-183.73 -27.14,-60.55 -16.71,-160.77 0,-206.7 -37.58,-62.64 8.35,-110.66 8.35,-160.77 0,-83.51 -33.4,-171.2 -25.05,-238.01 4.18,-27.14 18.79,-50.11 25.05,-73.08 -12.53,-62.64 -39.66,-150.32 -4.17,-215.04 10.43,20.87 54.28,-2.08 45.93,85.61 56.37,18.79 56.37,43.84 77.25,98.12 93.95,125.27 194.17,227.58 273.51,359.12 93.95,152.41 277.68,271.41 275.59,338.23 79.33,8.35 85.59,187.91 231.75,121.09 -2.1,-25.05 12.53,-50.11 41.75,-43.84 -37.58,-306.91 4.18,-601.3 -8.35,-893.6 58.46,-129.44 52.19,-300.64 77.25,-461.4 -2.08,-14.61 -16.69,-20.87 -25.05,-31.32 12.53,-6.26 12.53,-25.05 16.71,-39.66 -39.66,-2.1 -4.18,-43.84 -27.14,-66.81 -75.16,-6.26 -110.66,-60.55 -187.91,-22.97z"/>
  <path id="17" class="fil3" d="M11162.9 10411.38c29.22,4.17 35.48,181.64 33.4,189.99 18.79,10.44 20.87,16.71 29.22,37.58 -35.48,45.93 39.68,93.95 33.41,160.77 27.14,16.69 31.32,54.28 56.37,73.07 27.14,110.66 73.07,206.7 146.14,273.51 81.43,-6.26 100.22,18.79 169.11,33.4 133.62,-25.05 144.06,-219.22 227.57,-315.26 66.81,-242.19 146.16,-453.06 171.21,-684.81 35.48,-10.44 22.96,-45.94 16.69,-81.43 56.37,-62.64 16.71,-200.43 48.02,-296.47 -27.14,-6.26 -14.61,-37.58 -25.05,-41.76 -20.87,6.26 -39.66,-4.18 -35.5,-31.32 -18.79,-18.79 -45.93,-14.61 -68.9,16.71 -29.22,-10.44 -41.75,-35.5 -81.43,-33.41 6.26,248.46 -81.43,444.71 -112.74,718.22 -66.8,104.38 -60.54,256.8 -150.32,340.31 6.26,54.29 -29.22,112.74 -62.64,127.35 -54.28,-127.35 -139.88,-281.86 -146.14,-419.65 -89.77,-177.46 -89.77,-388.34 -150.32,-609.64 -127.35,-25.05 -93.95,48.02 -167.02,37.58 2.08,141.98 -79.34,217.14 -54.29,329.88 -8.35,-16.71 -25.05,-16.71 -33.4,-16.71 -18.79,242.19 -137.8,448.89 -129.45,701.51 -114.83,-60.55 -102.3,-248.46 -179.56,-346.58 -43.84,-221.32 -175.38,-419.65 -227.57,-659.75 -98.13,-75.16 -98.13,-219.22 -194.17,-306.91 -33.4,-4.18 -73.08,20.87 -104.4,16.69 -6.26,45.94 -2.08,48.02 0,96.05 16.71,8.35 22.97,-4.18 31.32,25.05 -33.4,12.53 29.23,54.28 0,79.33 37.58,6.26 37.58,4.18 45.94,-2.08 -60.55,50.11 75.16,144.06 43.84,212.96 39.66,-4.18 27.14,48.02 25.05,62.64 31.32,-16.71 18.79,14.61 39.66,25.05 -33.4,66.8 39.66,100.22 31.32,160.76 29.23,-2.08 10.44,-20.87 41.76,-8.35 -12.53,33.4 8.35,29.23 -20.89,70.98 12.53,2.1 35.5,-10.43 43.84,20.89 -29.22,4.17 0,27.14 -31.32,12.53 33.41,66.8 43.84,187.91 98.13,233.83 -8.35,56.37 12.53,83.51 16.71,129.45 33.4,6.26 27.14,-4.18 22.96,48.01 18.79,20.89 27.15,50.11 56.37,56.37 -39.66,83.52 75.16,110.66 58.47,169.11 33.4,-14.61 79.33,12.53 56.37,50.11 14.61,12.53 31.32,20.89 48.01,31.32 0,18.79 -14.61,22.97 -8.35,48.02 27.14,-6.26 25.05,12.53 33.4,25.05 14.62,2.08 31.32,8.35 39.68,2.08 25.05,37.58 62.64,50.11 114.83,37.58 68.9,-106.48 85.61,-231.75 137.8,-346.58 -10.44,-108.56 39.66,-354.94 66.81,-453.06z"/>
  <path id="18" class="fil3" d="M13574.34 10185.89c0,0 37.58,4.17 27.14,-35.5 -10.44,-54.29 -48.02,-20.87 -27.14,-73.07 -16.71,-4.18 -20.89,0 -27.15,4.17 6.26,-33.4 -8.35,-35.48 -6.26,-66.8 -29.22,-6.26 -41.75,-48.02 -60.54,-64.73 10.43,-77.25 -119.01,-148.23 -173.29,-238.01 -37.58,25.05 -52.19,-48.01 -87.69,-22.96 -8.35,-16.71 -85.59,-27.15 -93.95,-43.84 -68.9,4.17 -75.16,29.22 -137.8,16.69 -25.05,-4.17 -50.11,33.41 -68.9,35.5 -2.08,-37.58 -56.37,-56.37 -66.8,-87.69 -29.23,16.71 -20.89,-4.18 -31.32,50.11 -14.62,-27.14 -66.81,-45.93 -93.95,-48.02 -10.44,12.53 12.53,110.66 -41.76,27.15 -81.43,39.66 -79.34,54.28 -79.34,54.28 -33.4,8.36 -14.61,31.32 -8.35,41.76 -56.37,-20.87 -106.48,52.19 -129.45,87.69 8.36,4.18 16.71,2.08 20.89,8.35 -8.36,12.53 -35.5,45.94 -56.37,48.02 10.43,93.95 -91.87,58.46 -43.84,158.67 -22.97,10.44 -41.76,22.97 -64.73,31.32 -6.26,70.98 -70.98,146.14 -50.11,223.4 -48.01,27.14 -25.05,68.9 -31.32,108.56 -4.17,31.32 -29.22,58.46 -33.4,93.95 0,18.79 18.79,41.76 16.71,68.9 -2.1,58.46 -31.32,93.95 8.35,125.27 -2.08,14.61 -20.87,14.61 -25.05,31.32 58.46,192.08 102.3,281.86 244.28,392.52 37.58,-16.71 75.16,27.14 83.51,27.14 8.36,18.79 45.94,37.58 64.73,22.97 0,6.26 0,14.61 0,22.96 29.22,8.36 98.12,-20.87 89.77,22.97 54.29,-6.26 100.22,0 131.53,-25.05 4.18,14.61 31.32,6.26 25.05,31.32 91.87,-10.44 116.92,-37.58 217.14,-37.58 8.35,-41.76 60.54,-41.76 112.74,-39.66 8.35,-10.44 8.35,-29.23 25.04,-31.32 106.48,-2.1 160.77,-110.66 242.19,-169.11 27.14,-20.89 93.95,-89.79 112.74,-125.27 22.97,-43.84 18.79,-98.13 48.02,-131.53 20.87,-22.97 50.11,-60.55 33.4,-100.22 8.35,-25.05 22.97,-127.37 22.97,-116.92 0,-2.08 -16.71,-8.35 -16.71,-14.61 18.79,-89.79 -2.08,-139.89 -29.23,-244.28 -25.05,18.79 -45.93,2.08 -41.75,-18.79zm-929.08 -256.8c25.05,-29.23 81.43,-48.02 98.12,-85.61 58.47,27.15 10.44,33.41 14.62,104.4 14.61,37.58 96.04,-60.55 89.77,16.71 119.01,-33.41 116.92,-164.95 361.19,-66.81 141.98,127.35 238.01,409.21 225.49,666.02 0,22.97 -18.79,29.23 -31.32,39.66 -10.43,141.98 -148.23,200.43 -219.22,311.09 -60.54,8.35 -89.77,48.02 -129.44,77.25 -141.98,48.02 -398.78,54.29 -505.26,-48.01 -31.32,-70.99 -73.07,-131.53 -104.38,-200.43 -37.58,-244.28 14.61,-540.76 144.06,-737.01 4.17,-6.26 27.14,-8.35 33.4,-14.61 12.53,-16.71 14.61,-52.19 22.97,-62.64z"/>
  <path id="19" class="fil3" d="M15083.83 9878.98c0,-89.77 -62.64,-121.09 -135.7,-137.8 -141.98,-177.46 -371.63,-106.48 -603.38,-100.22 0,18.79 0,37.58 -16.71,39.66 -33.4,-16.69 -52.19,16.71 -91.87,0 -39.66,48.02 -102.3,35.5 -167.02,52.2 -37.58,70.98 -121.1,60.54 -183.74,91.86 0,45.94 -66.8,20.89 -114.83,45.94 16.71,77.25 14.61,123.17 60.55,175.38 52.19,-2.1 75.16,10.43 108.56,-8.36 -14.61,139.88 -14.61,275.59 -8.35,413.39 6.26,158.67 -48.02,315.26 -8.36,473.94 4.18,14.61 20.89,29.22 22.97,45.93 22.97,116.92 -12.53,277.68 137.8,327.79 12.53,-12.53 58.46,-35.48 98.13,-43.84 -6.26,-104.38 -2.1,-269.33 -58.47,-373.71 119.01,-100.22 248.46,-54.29 432.18,-77.26 27.15,33.41 98.13,31.32 150.32,64.73 12.53,-2.1 37.58,-10.44 39.68,-22.97 102.3,14.61 158.67,98.13 240.1,116.92 66.8,58.46 133.62,148.23 229.65,152.41 4.18,-66.81 68.9,-25.05 75.16,-91.87 -27.14,-4.17 -22.96,-22.96 -6.26,-37.58 -68.9,-43.84 -106.48,-91.86 -169.11,-129.44 -108.56,-64.73 -200.43,-173.29 -344.48,-192.08 -77.26,-8.35 -114.84,-22.97 -167.03,-43.84 212.96,-129.45 482.29,-359.1 511.51,-626.35 2.1,-12.53 -16.69,-14.61 -14.61,-22.96 2.08,-31.32 33.4,-62.64 14.61,-91.87 -12.53,-22.97 -22.96,20.87 -31.32,0zm-517.78 -39.66c116.92,-25.05 329.87,-35.5 382.07,85.59 -164.93,453.06 -467.68,507.34 -797.55,688.99 2.08,-66.81 -50.11,-8.35 -62.64,-27.14 10.43,-127.37 -14.62,-275.59 2.08,-375.81 22.97,-2.1 43.84,16.69 60.55,0 -31.32,-127.35 6.26,-133.62 -68.9,-215.04 54.28,-58.47 54.28,0 108.56,-62.64 12.53,0 10.44,18.79 39.66,8.35 119.01,-41.76 206.7,-106.48 336.15,-102.3z"/>
  <path id="20" class="fil3" d="M16286.43 9810.08c-25.05,-35.5 -85.61,-100.22 -131.53,-104.4 -41.76,-2.08 -8.35,16.71 -39.66,-8.35 -22.97,-18.79 -62.64,-8.35 -100.22,-8.35 -27.15,0 -45.94,-25.05 -45.94,-25.05 -56.37,-10.44 -81.43,20.87 -102.3,16.69 -39.66,-6.26 -48.02,-10.43 -83.51,-18.79 -10.44,8.36 -18.79,27.15 -33.41,29.23 0,-12.53 -18.79,-20.87 -22.96,-27.14 -29.23,-4.18 -20.89,33.4 -54.29,25.05 -127.35,-37.58 -223.4,25.05 -317.36,60.54 -16.69,68.9 -4.17,162.85 31.32,200.43 52.2,14.62 87.69,-12.53 154.5,-35.48 48.02,70.98 27.14,250.53 39.66,392.5 4.18,62.64 29.23,119.01 37.58,173.29 20.89,137.8 33.41,377.89 31.32,457.24 -119.01,29.22 -68.9,139.88 -60.54,212.96 10.43,-27.15 22.96,8.35 16.69,27.14 45.94,-6.26 70.99,50.11 91.87,16.71 2.08,45.93 119.01,100.22 116.92,0 70.98,-25.05 167.02,-89.79 231.75,-123.19 50.11,-4.18 93.95,-16.71 108.56,-60.55 29.23,29.23 48.02,-54.28 85.61,-16.69 62.64,-64.73 156.58,-135.71 231.74,-156.59 60.55,-114.84 219.22,-206.7 187.91,-365.38 43.84,-85.59 -20.87,-141.96 0,-208.78 -10.43,-20.87 -16.69,-6.26 -25.05,-16.71 20.89,-33.4 -25.05,-48.01 -22.96,-87.69 -12.53,-4.17 -31.32,-4.17 -37.58,-16.69 -8.36,-64.72 -33.41,-164.93 -89.79,-175.38 -41.75,-79.34 -112.74,-110.66 -198.34,-156.59zm-357.02 1083.59c-64.72,0 -56.37,22.96 -110.66,6.26 -18.79,-116.92 10.44,-177.47 -41.75,-379.99 -8.36,-33.4 -56.37,-440.53 -68.9,-638.88 62.64,-31.32 104.38,-16.69 150.32,-10.43 8.35,-2.1 14.61,-6.26 16.69,-16.71 144.06,33.4 306.91,79.34 434.28,173.29 58.46,85.59 100.2,146.14 152.41,240.1 54.28,252.62 -93.95,350.76 -269.33,478.11 -27.14,18.79 -45.93,52.19 -70.98,68.9 -54.29,37.58 -162.85,16.71 -192.08,79.34z"/>
  <polygon id="21" class="fil3 str1" points="6756.01,11146.29 6756.01,9571.5 7921.71,9571.5 7921.71,9837.64 7074.93,9837.64 7074.93,10187.35 7862.32,10187.35 7862.32,10453.47 7074.93,10453.47 7074.93,10880.17 7952.5,10880.17 7952.5,11146.29 "/>
 </g>
</svg>
